<?xml version="1.0" standalone="no"?>
<!DOCTYPE svg PUBLIC "-//W3C//DTD SVG 20010904//EN"
 "http://www.w3.org/TR/2001/REC-SVG-20010904/DTD/svg10.dtd">
<svg version="1.0" xmlns="http://www.w3.org/2000/svg"
 width="512.000000pt" height="512.000000pt" viewBox="0 0 512.000000 512.000000"
 preserveAspectRatio="xMidYMid meet">

<g transform="translate(0.000000,512.000000) scale(0.100000,-0.100000)"
fill="#000000" stroke="none">
<path d="M490 5104 c-142 -38 -245 -155 -270 -305 -14 -89 -14 -4389 0 -4478
25 -153 130 -268 276 -306 54 -14 196 -15 1195 -13 l1134 3 67 32 c81 38 151
107 187 183 l26 55 3 1074 2 1074 -22 24 c-31 33 -86 32 -119 -3 l-24 -26 -3
-614 -3 -614 -1277 2 -1277 3 0 1620 0 1620 1277 3 1277 2 3 -616 3 -616 28
-24 c37 -31 81 -31 113 1 l24 24 -2 818 -3 818 -26 55 c-36 76 -106 145 -187
183 l-67 32 -1140 2 c-979 2 -1148 0 -1195 -13z m2339 -180 c34 -17 62 -41 79
-67 24 -36 27 -52 30 -144 l4 -103 -1283 0 -1282 0 6 94 c8 135 48 201 142
234 20 7 394 11 1141 11 l1110 1 53 -26z m109 -4262 l-3 -358 -27 -41 c-17
-26 -45 -50 -79 -67 l-53 -26 -1106 0 c-801 0 -1116 3 -1141 11 -51 18 -97 55
-122 102 -21 41 -22 52 -25 390 l-3 347 1281 0 1281 0 -3 -358z"/>
<path d="M1265 4835 c-34 -33 -34 -83 1 -116 25 -23 31 -24 209 -27 146 -3
190 0 219 12 59 24 71 91 26 136 -19 19 -34 20 -225 20 -205 0 -206 0 -230
-25z"/>
<path d="M1862 4837 c-28 -30 -29 -86 -2 -115 41 -44 168 -42 208 3 29 35 29
79 -3 110 -21 22 -33 25 -103 25 -69 0 -81 -3 -100 -23z"/>
<path d="M1593 930 c-260 -55 -356 -380 -169 -571 90 -92 238 -124 361 -78
127 46 216 177 216 315 0 81 -14 127 -60 194 -77 111 -217 168 -348 140z m168
-195 c45 -29 69 -79 69 -143 0 -85 -61 -151 -149 -160 -62 -6 -101 9 -141 54
-49 56 -58 133 -22 199 42 80 161 105 243 50z"/>
<path d="M2032 3387 c-566 -566 -556 -555 -524 -612 6 -11 246 -255 534 -542
492 -492 526 -523 558 -523 19 0 43 6 52 14 23 17 40 64 32 90 -3 11 -207 222
-452 469 l-447 447 1522 0 c982 0 1531 4 1548 10 30 11 54 60 47 96 -2 13 -16
33 -30 44 -24 20 -46 20 -1556 20 l-1531 0 447 448 c286 286 449 456 453 473
8 31 -16 83 -40 93 -9 3 -31 6 -48 6 -29 0 -85 -53 -565 -533z"/>
</g>
</svg>
